<svg xmlns="http://www.w3.org/2000/svg" width="72.276" height="47.602" viewBox="0 0 72.276 47.602">
  <g id="email" transform="translate(0 -87.396)">
    <g id="Group_1085" data-name="Group 1085" transform="translate(2.89 100.319)">
      <path id="Path_836" data-name="Path 836" d="M157.858,184.8l.059-.048Z" transform="translate(-138.464 -183.931)" fill="#93ca66"/>
      <path id="Path_837" data-name="Path 837" d="M498.549,192.269a3.714,3.714,0,0,1,.195.391A3.691,3.691,0,0,0,498.549,192.269Z" transform="translate(-431.062 -190.388)" fill="#93ca66"/>
      <path id="Path_838" data-name="Path 838" d="M210.987,178.945a3.709,3.709,0,0,1,2.631,1.09,3.709,3.709,0,0,0-2.631-1.09H168.514a3.716,3.716,0,0,0-1.028.145,3.721,3.721,0,0,1,1.028-.145Z" transform="translate(-146.733 -178.945)" fill="#93ca66"/>
      <path id="Path_839" data-name="Path 839" d="M164.308,180.448c.092-.04.187-.076.283-.109Q164.447,180.388,164.308,180.448Z" transform="translate(-144.004 -180.142)" fill="#93ca66"/>
      <path id="Path_840" data-name="Path 840" d="M57.562,217.7,38.533,205.3l-.148,3.578a1.939,1.939,0,0,1-1.937,1.858H22.643a2.171,2.171,0,0,0,0,4.341H35.112A2.893,2.893,0,0,1,38,218.092h0a2.893,2.893,0,0,1-2.891,2.773H31.864a2.171,2.171,0,0,0-2.171,2.171h0a2.171,2.171,0,0,0,2.171,2.171h3.823a1.938,1.938,0,0,1,1.937,2.019l-.162,3.9a3.721,3.721,0,0,0,3.721,3.721H83.655a3.721,3.721,0,0,0,3.72-3.721l1.07-25.826L67.395,217.89A9.284,9.284,0,0,1,57.562,217.7Z" transform="translate(-20.472 -201.58)" fill="#fff"/>
      <path id="Path_841" data-name="Path 841" d="M500.505,196.548c.035.1.067.2.094.306C500.572,196.75,500.54,196.648,500.505,196.548Z" transform="translate(-432.742 -194.063)" fill="#93ca66"/>
    </g>
    <path id="Path_842" data-name="Path 842" d="M198.119,181.431c-.025-.072-.052-.143-.081-.213a3.686,3.686,0,0,0-.195-.391,3.718,3.718,0,0,0-3.233-1.881H152.137a3.716,3.716,0,0,0-1.028.145q-.084.024-.165.052c-.1.033-.191.068-.283.109a3.717,3.717,0,0,0-.851.514l-.059.048a3.712,3.712,0,0,0-1.333,2.853h0l19.029,12.4a9.284,9.284,0,0,0,9.833.19l21.051-12.589a3.727,3.727,0,0,0-.117-.93C198.186,181.633,198.154,181.531,198.119,181.431Z" transform="translate(-127.466 -78.627)" fill="#f59211"/>
    <path id="Path_843" data-name="Path 843" d="M12.17,320.983h1.574a2.17,2.17,0,1,0,0-4.339H12.17a2.17,2.17,0,0,0,0,4.339Z" transform="translate(-8.588 -196.887)" fill="#f59211"/>
    <path id="Path_844" data-name="Path 844" d="M27.463,199.9v0a5.139,5.139,0,0,0,4.868,5.125q.131.007.264.007H75.067q.132,0,.263-.007l.081-.006c.06,0,.119-.008.178-.014l.1-.013c.052-.006.1-.012.156-.02l.113-.02c.046-.008.093-.015.139-.025s.081-.019.122-.028.084-.018.126-.029.081-.023.121-.034.082-.022.122-.035.079-.027.119-.04.08-.026.119-.041.078-.031.117-.046.077-.029.115-.046.077-.035.116-.052.075-.033.111-.05.075-.038.112-.057.073-.037.109-.056.072-.041.108-.062.071-.04.106-.061.071-.045.107-.068.068-.043.1-.065.069-.049.1-.073.066-.046.1-.069.067-.052.1-.079.063-.048.093-.073.064-.055.1-.083.061-.052.09-.078.061-.057.091-.086.059-.055.088-.083.058-.06.087-.09.056-.057.083-.087.054-.063.082-.094.054-.061.08-.092.051-.064.076-.1.052-.064.076-.1.048-.067.072-.1.048-.066.071-.1.045-.069.067-.1.045-.069.066-.1.042-.072.062-.107.042-.071.061-.107.038-.074.058-.111.038-.073.056-.11.035-.076.052-.113.035-.075.051-.113.031-.077.046-.116.031-.077.046-.116.027-.079.041-.119.028-.079.04-.119.023-.081.035-.121.024-.081.035-.122.02-.082.029-.124.02-.082.029-.123.016-.085.023-.127.016-.083.022-.125.012-.087.017-.13.012-.083.016-.125.007-.089.011-.133.007-.084.01-.126,0-.09,0-.136,0-.075,0-.112l1.069-25.8q0-.029,0-.058a5.138,5.138,0,0,0-5.132-5.132H33.648c-.082,0-.165,0-.246.006l-.1.007c-.054,0-.109.007-.163.012s-.081.01-.121.015-.09.01-.135.017-.086.015-.129.023l-.123.022c-.044.009-.087.02-.13.03s-.079.017-.118.027-.088.025-.132.037l-.111.032c-.044.014-.086.029-.13.044l-.108.037c-.042.016-.084.033-.126.05l-.106.042c-.042.018-.083.037-.124.056l-.1.046c-.041.02-.081.041-.121.062l-.1.051c-.04.021-.078.044-.117.067s-.066.037-.1.056-.076.048-.114.073l-.094.06c-.037.025-.073.052-.11.078s-.061.043-.091.065-.07.054-.1.082-.06.046-.09.07-.067.057-.1.086-.058.049-.086.075-.064.061-.1.091-.055.052-.082.078-.061.063-.091.1-.053.055-.079.083-.057.066-.086.1-.051.057-.075.087-.054.068-.081.1-.049.06-.072.091-.05.07-.075.105-.046.063-.068.1-.047.072-.07.108-.043.066-.064.1-.043.073-.064.11-.041.069-.06.1-.039.075-.058.112-.038.072-.056.109-.035.076-.052.114-.035.075-.051.113-.031.077-.046.116-.031.077-.046.116-.027.078-.041.118-.028.08-.041.12-.023.079-.034.119-.024.082-.035.124-.019.08-.029.121-.02.084-.029.127-.015.081-.022.122-.017.087-.023.13-.011.081-.016.122-.012.089-.017.134-.007.082-.01.123-.008.091-.01.137,0,.083,0,.124,0,.081,0,.123l-.147,3.552a.525.525,0,0,1-.526.5H14.054a3.582,3.582,0,1,0,0,7.165H26.524a1.482,1.482,0,1,1,0,2.963H23.276a3.582,3.582,0,0,0,0,7.165H27.1a.527.527,0,0,1,.526.549l-.162,3.9C27.463,199.864,27.463,199.883,27.463,199.9Zm50.017-2.527L61.237,186.859l17.1-10.228ZM31.533,173.193c.008-.018.016-.036.025-.054.02-.045.041-.089.064-.133l.035-.063q.034-.06.072-.118l.038-.058c.03-.043.062-.085.094-.126.01-.012.019-.025.029-.037q.065-.078.137-.151l.035-.033c.038-.036.076-.072.116-.105l.054-.043q.054-.043.111-.083l.058-.04c.042-.027.084-.053.127-.077l.049-.029c.06-.032.122-.062.185-.089l.03-.012c.054-.022.108-.042.164-.06l.066-.019c.046-.013.092-.025.139-.036l.073-.015c.048-.009.1-.016.146-.022l.067-.008c.071-.007.143-.011.217-.011H76.137c.073,0,.144,0,.215.011l.066.008c.049.006.1.013.146.022l.072.015q.071.016.14.036l.063.018c.06.019.119.04.177.064l.016.006c.063.027.125.056.185.089l.051.029c.043.024.085.049.126.076l.057.038q.058.04.114.084l.05.04q.067.056.13.117l.02.018q.072.072.138.15l.032.041c.032.039.063.079.092.121l.038.056q.039.059.075.121l.032.056c.027.049.051.1.074.15l.016.034c.025.058.047.118.067.179L58.6,185.148l-.513.307a7.81,7.81,0,0,1-2.679.99,7.976,7.976,0,0,1-1.6.113A7.884,7.884,0,0,1,50.08,185.5c-.113-.066-.226-.134-.336-.206l-18.28-11.912C31.484,173.318,31.507,173.255,31.533,173.193ZM27.1,192.572H23.276a.759.759,0,0,1,0-1.518h3.248a4.3,4.3,0,1,0,0-8.61H14.054a.759.759,0,0,1,0-1.518H27.859a3.342,3.342,0,0,0,3.347-3.211l.046-1.1L47.38,187.124l-2.43,1.462a1.412,1.412,0,0,0,1.455,2.419l3.842-2.311a10.79,10.79,0,0,0,8.224-.263l18.8,12.17q-.03.1-.069.187c-.008.018-.017.036-.025.054-.02.045-.041.09-.064.133l-.035.064q-.034.06-.071.117c-.013.02-.026.04-.039.06-.029.042-.06.083-.092.122l-.032.041q-.065.078-.136.15l-.035.033c-.037.036-.076.071-.115.1l-.055.044q-.054.043-.11.082l-.06.041c-.041.027-.083.052-.125.076l-.051.03c-.06.032-.122.062-.185.089l-.03.012c-.054.022-.108.042-.164.06l-.066.019c-.046.013-.091.025-.138.036l-.074.015c-.048.009-.1.016-.146.022l-.067.008c-.071.007-.143.011-.216.011H32.595c-.073,0-.144,0-.215-.011l-.066-.008c-.049-.006-.1-.013-.146-.022l-.072-.015c-.047-.01-.093-.022-.139-.035l-.065-.019c-.058-.019-.116-.04-.172-.063l-.021-.008c-.063-.027-.124-.056-.184-.088l-.052-.029c-.042-.024-.084-.049-.125-.075l-.058-.039q-.057-.04-.112-.083l-.052-.041c-.043-.036-.085-.074-.126-.113l-.024-.023c-.048-.048-.093-.1-.137-.149l-.033-.042c-.031-.039-.062-.079-.091-.12l-.038-.057c-.026-.039-.05-.079-.074-.119L30.561,201q-.038-.071-.071-.145c-.006-.013-.013-.026-.018-.039-.025-.059-.047-.119-.068-.18l7.135-4.292a1.412,1.412,0,1,0-1.455-2.419l-5.69,3.423.053-1.281a3.35,3.35,0,0,0-3.347-3.489Z" transform="translate(-8.994 -70.038)" fill="#212121"/>
    <path id="Path_845" data-name="Path 845" d="M3.581,313.805H5.155a3.581,3.581,0,0,0,0-7.162H3.581a3.581,3.581,0,0,0,0,7.162Zm0-4.339H5.155a.758.758,0,0,1,0,1.516H3.581a.758.758,0,0,1,0-1.516Z" transform="translate(0 -188.297)" fill="#212121"/>
    <path id="Path_846" data-name="Path 846" d="M244.452,132.137a1.412,1.412,0,0,0,1.412,1.412H268.75a1.412,1.412,0,1,0,0-2.823H245.864A1.412,1.412,0,0,0,244.452,132.137Z" transform="translate(-209.944 -37.213)" fill="#212121"/>
    <path id="Path_847" data-name="Path 847" d="M195.461,87.4h-22.9a1.412,1.412,0,0,0,0,2.823h22.9a1.412,1.412,0,1,0,0-2.823Z" transform="translate(-146.992 0)" fill="#212121"/>
    <path id="Path_848" data-name="Path 848" d="M373.6,89.59a1.53,1.53,0,0,0,.176.216,1.431,1.431,0,0,0,.457.3,1.49,1.49,0,0,0,.264.08,1.417,1.417,0,0,0,.277.028,1.389,1.389,0,0,0,.275-.028,1.419,1.419,0,0,0,.264-.08,1.414,1.414,0,0,0,.844-1.028,1.405,1.405,0,0,0,.028-.277,1.422,1.422,0,0,0-.414-1,1.35,1.35,0,0,0-.215-.175,1.445,1.445,0,0,0-.244-.13,1.421,1.421,0,0,0-.264-.08,1.4,1.4,0,0,0-.552,0,1.488,1.488,0,0,0-.264.08,1.427,1.427,0,0,0-.243.13,1.352,1.352,0,0,0-.215.175,1.409,1.409,0,0,0-.306,1.539A1.433,1.433,0,0,0,373.6,89.59Z" transform="translate(-320.654 0)" fill="#212121"/>
    <path id="Path_849" data-name="Path 849" d="M219.777,328.29a1.431,1.431,0,0,0,.13.243,1.36,1.36,0,0,0,.176.215,1.414,1.414,0,0,0,1,.414,1.39,1.39,0,0,0,.275-.027,1.428,1.428,0,0,0,.264-.08,1.392,1.392,0,0,0,.459-.306,1.352,1.352,0,0,0,.175-.215,1.414,1.414,0,0,0,.21-.507,1.4,1.4,0,0,0,.028-.277,1.422,1.422,0,0,0-.414-1,1.35,1.35,0,0,0-.215-.175,1.447,1.447,0,0,0-.244-.13,1.41,1.41,0,0,0-1.951,1.3,1.4,1.4,0,0,0,.027.277A1.425,1.425,0,0,0,219.777,328.29Z" transform="translate(-188.661 -205.213)" fill="#212121"/>
  </g>
</svg>
